HIERARCHY
ROOT Hips
{
	OFFSET 0.000000 89.005402 0.000000
	CHANNELS 6 Xposition Yposition Zposition Xrotation Yrotation Zrotation
	JOINT Spine
	{
		OFFSET 0.116900 10.681000 0.373400
		CHANNELS 3 Xrotation Yrotation Zrotation
		JOINT Spine1
		{
			OFFSET 0.000000 13.840401 0.053500
			CHANNELS 3 Xrotation Yrotation Zrotation
			JOINT Spine2
			{
				OFFSET 0.000000 14.712700 -0.366200
				CHANNELS 3 Xrotation Yrotation Zrotation
				JOINT Neck
				{
					OFFSET 0.000000 35.415497 -3.314200
					CHANNELS 3 Xrotation Yrotation Zrotation
					JOINT Head
					{
						OFFSET 0.000000 16.899200 1.218300
						CHANNELS 3 Xrotation Yrotation Zrotation
						JOINT HeadTop_End
						{
							OFFSET 0.000000 22.206207 2.192500
							CHANNELS 3 Xrotation Yrotation Zrotation
							End Site
							{
								OFFSET 0.000000 22.314178 0.000000
							}
						}
					}
				}
				JOINT LeftShoulder
				{
					OFFSET 12.896400 26.716293 -4.548400
					CHANNELS 3 Xrotation Yrotation Zrotation
					JOINT LeftArm
					{
						OFFSET 19.027000 -4.857010 -1.718400
						CHANNELS 3 Xrotation Yrotation Zrotation
						JOINT LeftForeArm
						{
							OFFSET 24.179897 0.000000 0.000000
							CHANNELS 3 Xrotation Yrotation Zrotation
							JOINT LeftHand
							{
								OFFSET 27.156403 0.000000 0.000000
								CHANNELS 3 Xrotation Yrotation Zrotation
								JOINT LeftHandIndex1
								{
									OFFSET 16.441200 0.000000 0.000000
									CHANNELS 3 Xrotation Yrotation Zrotation
									JOINT LeftHandIndex2
									{
										OFFSET 4.821899 0.000000 0.000000
										CHANNELS 3 Xrotation Yrotation Zrotation
										JOINT LeftHandIndex3
										{
											OFFSET 6.386497 0.000000 0.000000
											CHANNELS 3 Xrotation Yrotation Zrotation
											JOINT LeftHandIndex4
											{
												OFFSET 5.188988 0.000000 0.000000
												CHANNELS 3 Xrotation Yrotation Zrotation
												End Site
												{
													OFFSET -0.178703 5.185913 0.000177
												}
											}
										}
									}
								}
								JOINT LeftHandThumb1
								{
									OFFSET 6.534897 -5.032593 5.900300
									CHANNELS 3 Xrotation Yrotation Zrotation
									JOINT LeftHandThumb2
									{
										OFFSET 3.818176 -2.204422 2.204423
										CHANNELS 3 Xrotation Yrotation Zrotation
										JOINT LeftHandThumb3
										{
											OFFSET 3.252098 -1.877594 1.877601
											CHANNELS 3 Xrotation Yrotation Zrotation
											JOINT LeftHandThumb4
											{
												OFFSET 5.251778 -3.032120 3.032117
												CHANNELS 3 Xrotation Yrotation Zrotation
												End Site
												{
													OFFSET 0.000023 6.780014 0.000000
												}
											}
										}
									}
								}
							}
						}
					}
				}
				JOINT RightShoulder
				{
					OFFSET -12.896300 26.716293 -4.548400
					CHANNELS 3 Xrotation Yrotation Zrotation
					JOINT RightArm
					{
						OFFSET -19.027000 -4.857010 -1.718400
						CHANNELS 3 Xrotation Yrotation Zrotation
						JOINT RightForeArm
						{
							OFFSET -24.179897 0.000000 0.000000
							CHANNELS 3 Xrotation Yrotation Zrotation
							JOINT RightHand
							{
								OFFSET -27.156403 0.000000 0.000000
								CHANNELS 3 Xrotation Yrotation Zrotation
								JOINT RightHandThumb1
								{
									OFFSET -6.591202 -4.852203 5.988100
									CHANNELS 3 Xrotation Yrotation Zrotation
									JOINT RightHandThumb2
									{
										OFFSET -3.818176 -2.204422 2.204423
										CHANNELS 3 Xrotation Yrotation Zrotation
										JOINT RightHandThumb3
										{
											OFFSET -3.252098 -1.877594 1.877601
											CHANNELS 3 Xrotation Yrotation Zrotation
											JOINT RightHandThumb4
											{
												OFFSET -5.251778 -3.032120 3.032117
												CHANNELS 3 Xrotation Yrotation Zrotation
												End Site
												{
													OFFSET -0.000023 6.780014 0.000000
												}
											}
										}
									}
								}
								JOINT RightHandIndex1
								{
									OFFSET -16.029404 0.000000 0.000000
									CHANNELS 3 Xrotation Yrotation Zrotation
									JOINT RightHandIndex2
									{
										OFFSET -5.213303 0.000000 0.000000
										CHANNELS 3 Xrotation Yrotation Zrotation
										JOINT RightHandIndex3
										{
											OFFSET -6.386528 0.000000 0.000000
											CHANNELS 3 Xrotation Yrotation Zrotation
											JOINT RightHandIndex4
											{
												OFFSET -5.189026 0.000000 0.000000
												CHANNELS 3 Xrotation Yrotation Zrotation
												End Site
												{
													OFFSET 0.236702 5.183624 0.001972
												}
											}
										}
									}
								}
							}
						}
					}
				}
			}
		}
	}
	JOINT LeftUpLeg
	{
		OFFSET 14.073000 -7.904099 -1.463000
		CHANNELS 3 Xrotation Yrotation Zrotation
		JOINT LeftLeg
		{
			OFFSET -0.109806 -34.073280 4.093200
			CHANNELS 3 Xrotation Yrotation Zrotation
			JOINT LeftFoot
			{
				OFFSET 0.109806 -29.899420 -6.319000
				CHANNELS 3 Xrotation Yrotation Zrotation
				JOINT LeftToeBase
				{
					OFFSET 1.551100 -14.988700 20.535801
					CHANNELS 3 Xrotation Yrotation Zrotation
					JOINT LeftToe_End
					{
						OFFSET 0.221200 0.570800 13.248301
						CHANNELS 3 Xrotation Yrotation Zrotation
						End Site
						{
							OFFSET 0.000000 13.262435 0.000000
						}
					}
				}
			}
		}
	}
	JOINT RightUpLeg
	{
		OFFSET -13.839300 -7.904099 -1.463000
		CHANNELS 3 Xrotation Yrotation Zrotation
		JOINT RightLeg
		{
			OFFSET 0.109694 -34.073219 4.093300
			CHANNELS 3 Xrotation Yrotation Zrotation
			JOINT RightFoot
			{
				OFFSET -0.109694 -29.899384 -6.319200
				CHANNELS 3 Xrotation Yrotation Zrotation
				JOINT RightToeBase
				{
					OFFSET -1.551100 -14.988700 20.535801
					CHANNELS 3 Xrotation Yrotation Zrotation
					JOINT RightToe_End
					{
						OFFSET -0.221200 0.570900 13.248299
						CHANNELS 3 Xrotation Yrotation Zrotation
						End Site
						{
							OFFSET 0.000000 13.262440 0.000000
						}
					}
				}
			}
		}
	}
}
MOTION
Frames: 4
Frame Time: 0.033333
-2.592829 85.442245 -1.280204 5.479032 17.431959 -7.272033 2.522227 -1.659381 2.692289 2.222640 0.162257 5.803453 2.206220 0.654146 5.717016 -1.565577 -3.477186 -2.417281 0.938892 -15.396992 5.907205 0.000000 0.000000 -0.000000 3.654829 -21.102928 5.047384 -36.257253 -33.313636 -75.335791 -0.000001 -115.672081 0.000006 1.350490 -12.769568 -26.678876 0.358376 3.960084 -0.652519 0.219534 2.304320 -15.157730 -0.007507 0.424954 -6.283668 0.000001 0.000001 0.000000 19.223701 -2.844533 5.479743 0.490484 30.711372 -3.100930 1.606102 7.218656 -0.724011 -0.000001 -0.000000 -0.000002 3.365688 9.688092 -13.110145 -63.089829 2.829407 66.490047 0.000128 98.327465 -0.000119 -75.623042 7.143877 -2.670507 18.491286 0.461425 -10.916079 -1.845145 -18.038492 4.942912 6.795709 -29.585801 -1.720524 0.000001 -0.000001 -0.000000 1.990174 -7.642451 40.413335 2.649420 -5.632212 56.998615 1.093499 -3.710325 50.120498 -0.000001 -0.000002 0.000002 -29.736608 5.830908 17.313978 16.057027 0.781376 4.672926 7.575184 -1.964544 -11.049510 0.105294 0.000154 -0.119079 -0.000000 0.000002 0.000000 -5.093807 -2.850056 12.017682 8.820809 -6.548930 6.134179 -12.952622 -14.097895 -11.150000 -0.689804 0.000002 0.000001 0.000000 -0.000000 -0.000000 
-2.548476 85.423553 -1.081940 4.631392 16.540722 -7.198310 2.384859 -1.492226 2.369402 2.067714 0.304128 5.529921 2.054427 0.839793 5.443859 -1.046028 -3.342774 -2.124877 2.112844 -14.358799 6.458950 0.000000 -0.000001 0.000000 3.634248 -20.785053 4.621557 -37.262285 -28.909086 -74.477865 -0.000007 -112.378708 -0.000011 -4.661647 -12.506280 -29.526836 0.350411 3.786194 1.041024 0.164630 2.084958 -12.917721 -0.021829 0.119184 -3.266080 0.000003 -0.000000 -0.000000 18.491279 -0.461422 10.916068 -0.337770 28.532255 -3.148871 1.049255 4.993579 -1.132189 0.000002 0.000002 -0.000000 3.385675 9.531208 -11.757707 -60.628980 4.026848 62.868688 -0.000601 95.566381 0.000599 -74.192534 9.675307 -2.926219 18.491272 0.461424 -10.916095 -2.316704 -17.668356 4.842300 6.507215 -28.261865 -1.587808 0.000000 0.000001 -0.000000 1.672745 -7.237618 35.203847 2.288078 -5.378499 52.607060 0.854832 -3.387445 46.266079 -0.000001 -0.000001 0.000001 -29.024482 6.023582 17.953268 17.249720 0.774477 4.729926 6.510767 -1.391240 -11.356522 0.128605 0.000233 -0.145361 -0.000000 0.000002 0.000000 -4.020149 -2.715850 12.181615 8.571999 -5.669046 6.212584 -12.852156 -14.012640 -11.247237 -0.538287 -0.000001 0.000001 0.000000 0.000000 -0.000000 
-2.490454 85.389809 -0.848505 3.811287 15.591773 -7.102895 2.284148 -1.252938 2.183120 1.938576 0.490948 5.354152 1.928072 1.045736 5.268730 -0.560317 -3.217695 -2.069795 2.808312 -13.720299 7.036731 -0.000000 -0.000000 -0.000001 3.519444 -20.203501 3.488223 -35.968555 -26.020581 -71.395209 0.000103 -108.245111 0.000104 -4.418047 -15.920503 -23.507942 0.347627 3.614659 2.713523 0.124228 1.894114 -10.985745 -0.022432 -0.084839 -1.255008 -0.000002 0.000001 0.000000 18.491276 -0.461420 10.916070 -1.141984 26.380615 -3.229822 0.485099 2.799721 -1.555563 0.000003 0.000002 0.000002 3.408303 9.001634 -10.695312 -52.755869 4.212624 60.840101 0.005159 92.905073 -0.005128 -69.768579 9.136766 -0.626195 18.491287 0.461422 -10.916081 -2.869999 -17.185174 4.729531 6.156966 -26.655276 -1.418754 -0.000000 0.000001 -0.000001 1.346340 -6.720907 29.004207 1.858865 -5.017509 47.028916 0.569140 -2.929186 41.084377 -0.000002 -0.000002 -0.000001 -28.235346 6.180335 18.464402 18.422490 0.822740 4.936132 5.412362 -0.745800 -11.763331 0.098480 0.000128 -0.111399 0.000000 0.000001 0.000000 -3.045813 -2.591753 12.318676 8.674140 -5.146262 6.210989 -13.262235 -13.851738 -11.343150 -0.970833 0.000002 0.000001 0.000000 0.000000 0.000000 
-2.431686 85.369408 -0.569360 3.098791 14.694932 -7.053610 2.126387 -0.993944 2.014740 1.757827 0.713971 5.195230 1.749922 1.255844 5.109508 -0.085840 -3.072698 -1.832673 3.398519 -12.801736 6.970656 0.000001 -0.000000 -0.000000 3.472631 -19.205223 2.520001 -33.560749 -22.454827 -67.903671 0.000020 -101.810772 0.000048 3.602348 -21.498405 -11.215265 0.350365 3.458362 4.240820 0.090454 1.703180 -9.065719 -0.015997 -0.286265 0.731524 -0.000000 0.000001 0.000003 18.491284 -0.461431 10.916067 -1.866984 24.416436 -3.331468 -0.043701 0.799721 -1.960658 -0.000000 -0.000000 0.000000 3.456765 8.457710 -8.805792 -46.112492 4.702188 58.988526 -0.372019 89.739014 0.371827 -63.674480 9.023311 6.416621 18.491276 0.461408 -10.916088 -3.477373 -16.574432 4.619348 5.698753 -24.558953 -1.185177 -0.000001 -0.000001 -0.000002 1.054962 -6.113440 22.155530 1.412962 -4.554647 40.638823 0.284586 -2.352188 34.914312 0.000006 -0.000002 -0.000003 -27.422699 6.298618 18.891714 19.421426 0.791642 5.198209 4.396839 -0.003624 -12.196026 0.122806 0.000218 -0.138835 0.000000 -0.000004 -0.000000 -2.117118 -2.587005 12.341827 8.681594 -4.265447 6.356934 -13.180074 -13.802994 -11.023563 -1.102750 0.000011 -0.000000 -0.000000 0.000001 -0.000000 
